<?xml version="1.0" encoding="UTF-8"?>
<svg id="Layer_1" xmlns="http://www.w3.org/2000/svg" version="1.1" viewBox="0 0 1920 1080">
  <!-- Generator: Adobe Illustrator 30.3.0, SVG Export Plug-In . SVG Version: 2.1.3 Build 182)  -->
  <defs>
    <style>
      .st0 {
        fill: #a7a7a7;
      }
    </style>
  </defs>
  <path d="M1083.19,633.26c-7.11,9.79-16.18,13.73-27.57,12.29-18.49-2.33-35.87-7.26-52.93-14.81-20.4,9.89-43.64,16.01-65.62,9.48-19.08-5.67-25.33-24.68-26-44.44-14.51,36.81-50.09,59.05-88.99,57.22-7.28-6.99-12.98-14.8-15.25-24.92,46.58-4.58,99.12-22.11,101.11-73.78,1.18-30.56-1.66-60.53-4.15-90.78,7.52-6.17,13.86-12.67,23.91-16.13,4.84,47.42,2.82,93.2,4.74,139.75.36,8.78,1.86,18.39,10.03,22.51,9.66,4.88,21.09,2.66,31.26,1.05-15.28-23.57-7.53-55.11,18.51-67.03l-17.2-2.15c1.3-9.74,5.28-19.17,12.91-26.77,33.42,5.3,65.73,19.98,88.33,44.6,19.34,21.06,23.62,50.86,6.89,73.91ZM1014,598.23c8.1-6.05,12.19-14.9,8.4-24.77-3.25-8.45-11.06-14.72-21.6-12.46-8,1.71-15.6,8.49-16.85,18.02-1.2,9.14,6.32,16.09,14.4,20.79,5.91,3.43,9.82,2.77,15.64-1.58ZM1073.39,616.06c2.82-8.62-.21-16.22-3.89-23.61-7.87-13.29-19.32-24.01-32.49-31.84,9.1,16.45,4.98,35.75-7.17,50.01,13.96,3.71,28.46,8.29,43.55,5.44Z"/>
  <path class="st0" d="M1245.02,532.12c11.53,21.68,17.16,46.34,14.18,69.42-3.24,25.08-20.23,39.73-44.89,41.06-14.67.8-31.01.28-41.08-11.91-9.92-12-11.09-28.06-11.43-43.59-.92-41.37-.36-81.91-5.6-123.05,7.47-6.54,14.09-12.98,24.47-16.81,4.88,44.6,2.41,87.34,3.84,131.29.33,9.99-.98,23.66,8.53,29.75,12.45,7.97,34.79,4.87,45.72-3.42,1.56-19.2-8.78-35.11-14.5-52.46,5.25-7.34,11.57-13.58,20.76-20.28Z"/>
  <path d="M1120.31,645.45l.05-174.1-119.03-18.93c-2.38-.38-5.16-.43-6.73.66-1.45,1-2.6,4.34-2.6,6.61l.03,45.65c-4.64.51-7.51,1.22-11.76,2.74l.15-49.4c.03-8.93,6.14-16.29,14.92-18.48l91.06-22.72c4.69-1.17,9.13-.46,12.84,2.1,3.16,2.18,5.89,6.54,5.93,11.12l.23,26.99c9.92.65,22.51,1.42,26.27,11.64l.42,174c.02,8.75-7.29,14.77-15.53,13.39l-36.49-6.11,9.89-9.88,30.36,4.74ZM1093.65,455.24l-.86-27.24-67.07,16.46,67.93,10.78Z"/>
  <path d="M864,604.61c-8.09-35.97-25.21-67.29-47.22-96.63,1.59-10.5,5.51-20.62,13.55-29.61,27.62,31.75,44.95,70.96,51.13,111.92-5.26,6.39-10.88,10.72-17.45,14.32Z"/>
  <path class="st0" d="M1199.51,659.82c9.15-1.91,17.05,4.51,18.7,12.55,1.78,8.67-4.13,17.03-12.52,18.9s-16.65-3.79-18.71-11.93,2.91-17.51,12.53-19.52Z"/>
  <path class="st0" d="M1235.51,659.78c8.99-2.39,17.25,4.49,19.11,12.29,2.04,8.57-3.76,16.89-12.04,19.1s-16.58-3.64-18.91-11.58,2.54-17.34,11.84-19.81Z"/>
  <path d="M1091.13,503.38c-1.76-5.44-4.3-9.12-10.31-10.34,6.2-2.06,8.46-4.78,10.19-11.05,1.47,5.56,3.83,8.89,10.45,11.04-5.57,1.61-8.83,3.75-10.32,10.35Z"/>
  <path d="M1079.38,502.48c3.06,3.91-11.62,11.86-17.56,27.3,1.01-13.71,12.56-33.69,17.56-27.3Z"/>
  <path d="M1087.4,529.06c-6.97.37-10.86,2.36-16.05,5.98,3-6.74,8.82-9.52,15.3-11.96l3.22,2.19c.88.6-1.4,3.45-2.47,3.79Z"/>
  <path d="M1052.89,523.79c-.44-7.71-7.93-12.09-7.52-19.32,8.51,1.49,9.49,12.52,7.52,19.32Z"/>
  <path d="M1036.99,491.82l4.96,5.08c1.01,1.03-4.54,2.97-4.5,4.91.03,1.43-2.78-3.42-4.08-4.08s1.87-2.89,3.63-5.9Z"/>
  <path d="M1103.07,515.6c1.95.05,3.56,1.55,3.71,3.48s-1.23,3.64-3.15,3.93-3.72-.96-4.25-2.91c-2.7-1.12,1.73-3.49,3.69-4.49Z"/>
  <path d="M1060.96,482.29l3.44,3.32c.79.76-2,2.54-2.84,3.58-.58.71-1.9-1.25-3.12-2.36-.81-.74-.05-1.63,2.52-4.54Z"/>
  <path d="M1092.9,539.72l3.12,2.36c.79.6-.71,2.73-1.59,3.2-.73.39-2.39-.54-3.28-1.15s.19-2.54,1.76-4.41Z"/>
</svg>