<svg width="456" height="325" viewBox="0 0 456 325" fill="none" xmlns="http://www.w3.org/2000/svg">
<path d="M276.36 216.327C269.25 226.117 260.18 230.057 248.79 228.617C230.3 226.287 212.92 221.357 195.86 213.807C175.46 223.697 152.22 229.817 130.24 223.287C111.16 217.617 104.91 198.607 104.24 178.847C89.73 215.657 54.15 237.897 15.25 236.067C7.97 229.077 2.27 221.267 0 211.147C46.58 206.567 99.12 189.037 101.11 137.367C102.29 106.807 99.45 76.837 96.96 46.587C104.48 40.417 110.82 33.917 120.87 30.457C125.71 77.877 123.69 123.657 125.61 170.207C125.97 178.987 127.47 188.597 135.64 192.717C145.3 197.597 156.73 195.377 166.9 193.767C151.62 170.197 159.37 138.657 185.41 126.737L168.21 124.587C169.51 114.847 173.49 105.417 181.12 97.817C214.54 103.117 246.85 117.797 269.45 142.417C288.79 163.477 293.07 193.277 276.34 216.327H276.36ZM207.17 181.297C215.27 175.247 219.36 166.397 215.57 156.527C212.32 148.077 204.51 141.807 193.97 144.067C185.97 145.777 178.37 152.557 177.12 162.087C175.92 171.227 183.44 178.177 191.52 182.877C197.43 186.307 201.34 185.647 207.16 181.297H207.17ZM266.56 199.127C269.38 190.507 266.35 182.907 262.67 175.517C254.8 162.227 243.35 151.507 230.18 143.677C239.28 160.127 235.16 179.427 223.01 193.687C236.97 197.397 251.47 201.977 266.56 199.127Z" fill="#946FA7"/>
<path d="M440.99 128.946C452.52 150.626 458.15 175.286 455.17 198.366C451.93 223.446 434.94 238.096 410.28 239.426C395.61 240.226 379.27 239.706 369.2 227.516C359.28 215.516 358.11 199.456 357.77 183.926C356.85 142.556 357.41 82.0164 352.17 40.8764C359.64 34.3364 366.26 27.8964 376.64 24.0664C381.52 68.6664 379.05 131.406 380.48 175.356C380.81 185.346 379.5 199.016 389.01 205.106C401.46 213.076 423.8 209.976 434.73 201.686C436.29 182.486 425.95 166.576 420.23 149.226C425.48 141.886 431.8 135.646 440.99 128.946Z" fill="#FF9D00"/>
<path d="M313.48 228.517L313.53 54.417L194.5 35.487C192.12 35.107 189.34 35.057 187.77 36.147C186.32 37.147 185.17 40.487 185.17 42.757L185.2 88.407C180.56 88.917 177.69 89.627 173.44 91.147L173.59 41.747C173.62 32.817 179.73 25.457 188.51 23.267L279.57 0.547017C284.26 -0.622983 288.7 0.0869923 292.41 2.64699C295.57 4.82699 298.3 9.18702 298.34 13.767L298.57 40.757C308.49 41.407 321.08 42.177 324.84 52.397L325.26 226.397C325.28 235.147 317.97 241.167 309.73 239.787L273.24 233.677L283.13 223.797L313.49 228.537L313.48 228.517ZM286.82 38.307L285.96 11.067L218.89 27.527L286.82 38.307Z" fill="#946FA7"/>
<path d="M57.1699 187.677C49.0799 151.707 31.96 120.388 9.94995 91.0475C11.54 80.5475 15.4599 70.4275 23.4999 61.4375C51.1199 93.1875 68.4499 132.397 74.6299 173.357C69.3699 179.747 63.7499 184.077 57.1799 187.677H57.1699Z" fill="#946FA7"/>
<path d="M388.16 254.589C397.31 252.679 405.21 259.099 406.86 267.139C408.64 275.809 402.73 284.169 394.34 286.039C385.95 287.909 377.69 282.249 375.63 274.109C373.57 265.969 378.54 256.599 388.16 254.589Z" fill="#FF9D00"/>
<path d="M424.16 254.548C433.15 252.158 441.41 259.038 443.27 266.838C445.31 275.408 439.51 283.728 431.23 285.938C422.95 288.148 414.651 282.298 412.321 274.358C409.991 266.418 414.86 257.018 424.16 254.548Z" fill="#FF9D00"/>
<path d="M284.3 86.4447C282.54 81.0047 280 77.3247 273.99 76.1047C280.19 74.0447 282.45 71.3247 284.18 65.0547C285.65 70.6147 288.01 73.9447 294.63 76.0947C289.06 77.7047 285.8 79.8447 284.31 86.4447H284.3Z" fill="#FF9D00"/>
<path d="M272.55 85.5474C275.61 89.4574 260.93 97.4074 254.99 112.847C256 99.1374 267.55 79.1574 272.55 85.5474Z" fill="#FF9D00"/>
<path d="M280.57 112.125C273.6 112.495 269.71 114.484 264.52 118.104C267.52 111.364 273.34 108.585 279.82 106.145L283.04 108.335C283.92 108.935 281.64 111.785 280.57 112.125Z" fill="#FF9D00"/>
<path d="M246.06 106.855C245.62 99.1451 238.13 94.7652 238.54 87.5352C247.05 89.0252 248.03 100.055 246.06 106.855Z" fill="#FF9D00"/>
<path d="M230.16 74.8867L235.12 79.9667C236.13 80.9967 230.58 82.9367 230.62 84.8767C230.65 86.3067 227.84 81.4567 226.54 80.7967C225.24 80.1367 228.41 77.9067 230.17 74.8967L230.16 74.8867Z" fill="#FF9D00"/>
<path d="M296.24 98.668C298.19 98.718 299.8 100.218 299.95 102.148C300.1 104.078 298.72 105.788 296.8 106.078C294.88 106.368 293.08 105.118 292.55 103.168C289.85 102.048 294.28 99.678 296.24 98.678V98.668Z" fill="#FF9D00"/>
<path d="M254.13 65.3555L257.57 68.6754C258.36 69.4354 255.57 71.2155 254.73 72.2555C254.15 72.9655 252.83 71.0054 251.61 69.8954C250.8 69.1554 251.56 68.2655 254.13 65.3555Z" fill="#FF9D00"/>
<path d="M286.07 122.785L289.19 125.145C289.98 125.745 288.48 127.875 287.6 128.345C286.87 128.735 285.21 127.805 284.32 127.195C283.43 126.585 284.51 124.655 286.08 122.785H286.07Z" fill="#FF9D00"/>
<path d="M69.5662 262.52C70.3881 262.52 71.872 260.579 74.018 256.698C76.2097 252.771 78.4242 248.844 80.6616 244.918C82.9446 240.991 84.5655 239.028 85.5244 239.028C86.4832 239.028 87.2595 239.37 87.853 240.055C88.4466 240.74 88.7434 241.562 88.7434 242.521C88.7434 243.479 87.8759 245.397 86.1408 248.274C84.4057 251.15 82.077 254.963 79.1548 259.712C76.2325 264.414 73.3103 269.528 70.3881 275.053C67.4658 280.578 65.4568 284.025 64.3609 285.395C63.2651 286.765 62.3747 287.45 61.6898 287.45C60.6853 287.45 60.183 286.628 60.183 284.984C60.183 283.706 60.8223 281.765 62.1008 279.163C62.5117 278.386 62.8313 277.747 63.0596 277.245C63.2879 276.697 63.6532 275.944 64.1555 274.985C64.6577 274.026 65.0458 273.295 65.3198 272.793C65.5938 272.245 66.0047 271.423 66.5526 270.327C67.1462 269.186 67.58 268.364 67.8539 267.862C65.16 267.177 62.6715 265.488 60.3885 262.794C58.1512 260.054 56.4389 257.018 55.2518 253.684C54.0646 250.306 53.471 247.018 53.471 243.822C53.471 240.626 54.3842 239.028 56.2106 239.028C56.9412 239.028 57.5119 239.735 57.9229 241.151C58.3795 242.566 58.9274 244.598 59.5666 247.246C60.2059 249.895 61.0506 252.337 62.1008 254.575C63.1509 256.766 64.4066 258.639 65.8677 260.191C67.3288 261.743 68.5617 262.52 69.5662 262.52ZM106.907 253.068C108.961 253.068 110.856 254.118 112.591 256.219C114.326 258.273 115.194 260.145 115.194 261.835C115.194 263.478 114.623 265.168 113.482 266.903C114.03 267.588 114.304 268.181 114.304 268.684C114.304 269.962 114.007 272.154 113.413 275.259C112.865 278.364 112.523 280.396 112.386 281.354C112.295 282.313 112.203 283.089 112.112 283.683C112.021 284.231 111.906 284.779 111.769 285.327C111.587 286.468 111.176 287.039 110.537 287.039C109.715 287.039 109.03 286.331 108.482 284.916C107.98 283.455 107.683 281.583 107.592 279.3C103.528 284.459 99.7609 287.039 96.2907 287.039C94.1903 287.039 92.1128 286.149 90.0581 284.368C88.049 282.542 87.0445 280.669 87.0445 278.752C87.0445 276.012 88.049 272.633 90.0581 268.615C92.0671 264.551 94.6698 260.944 97.866 257.794C101.062 254.643 104.076 253.068 106.907 253.068ZM110.057 265.122C110.057 260.876 109.212 258.753 107.523 258.753C105.742 258.753 103.665 260.031 101.29 262.588C98.9161 265.099 96.9071 267.953 95.2633 271.149C93.6196 274.346 92.7977 276.88 92.7977 278.752C92.7977 279.528 93.1173 280.167 93.7566 280.669C94.3958 281.126 95.1492 281.354 96.0167 281.354C98.1627 281.354 100.583 279.916 103.277 277.04C105.971 274.117 107.843 270.579 108.893 266.424C109.03 265.739 109.418 265.328 110.057 265.191V265.122ZM154.378 286.902C153.83 286.902 153.077 286.308 152.118 285.121C151.159 283.889 150.68 282.724 150.68 281.628C150.68 280.532 151.684 276.058 153.693 268.204C153.1 267.976 152.575 267.588 152.118 267.04C151.707 266.446 151.502 265.784 151.502 265.054C151.502 264.46 152.689 263.798 155.063 263.068C158.122 251.105 159.652 243.685 159.652 240.808C159.652 240.032 159.743 239.507 159.926 239.233C160.154 238.913 160.565 238.754 161.159 238.754C161.798 238.754 162.62 239.461 163.624 240.877C164.675 242.292 165.2 243.89 165.2 245.671C165.2 247.406 164.081 252.68 161.844 261.492C167.871 260.259 173.784 259.46 179.583 259.095C181.911 249.598 183.076 243.502 183.076 240.808C183.076 239.438 183.532 238.754 184.445 238.754C185.222 238.754 186.135 239.461 187.185 240.877C188.235 242.292 188.76 243.776 188.76 245.329C188.76 246.835 187.733 251.47 185.678 259.232C187.779 259.552 188.829 260.191 188.829 261.15C188.829 262.063 187.413 262.816 184.582 263.41C183.121 268.798 182.117 272.542 181.569 274.642C181.067 276.697 180.656 278.341 180.336 279.574C180.016 280.806 179.674 282.039 179.309 283.272C178.669 285.692 178.099 286.902 177.596 286.902C176.957 286.902 176.204 286.377 175.336 285.327C174.514 284.231 174.103 283.112 174.103 281.971C174.103 280.829 175.473 274.962 178.213 264.369C171.546 265.282 165.542 266.332 160.2 267.519C159.561 269.894 158.944 272.2 158.351 274.437C157.803 276.629 157.369 278.341 157.049 279.574C156.73 280.806 156.387 282.039 156.022 283.272C155.383 285.692 154.835 286.902 154.378 286.902ZM212.384 253.068C214.439 253.068 216.334 254.118 218.069 256.219C219.804 258.273 220.671 260.145 220.671 261.835C220.671 263.478 220.101 265.168 218.959 266.903C219.507 267.588 219.781 268.181 219.781 268.684C219.781 269.962 219.484 272.154 218.891 275.259C218.343 278.364 218 280.396 217.863 281.354C217.772 282.313 217.681 283.089 217.589 283.683C217.498 284.231 217.384 284.779 217.247 285.327C217.064 286.468 216.653 287.039 216.014 287.039C215.192 287.039 214.507 286.331 213.959 284.916C213.457 283.455 213.16 281.583 213.069 279.3C209.005 284.459 205.238 287.039 201.768 287.039C199.668 287.039 197.59 286.149 195.535 284.368C193.526 282.542 192.522 280.669 192.522 278.752C192.522 276.012 193.526 272.633 195.535 268.615C197.545 264.551 200.147 260.944 203.343 257.794C206.54 254.643 209.553 253.068 212.384 253.068ZM215.535 265.122C215.535 260.876 214.69 258.753 213 258.753C211.22 258.753 209.142 260.031 206.768 262.588C204.394 265.099 202.384 267.953 200.741 271.149C199.097 274.346 198.275 276.88 198.275 278.752C198.275 279.528 198.595 280.167 199.234 280.669C199.873 281.126 200.627 281.354 201.494 281.354C203.64 281.354 206.06 279.916 208.754 277.04C211.448 274.117 213.32 270.579 214.37 266.424C214.507 265.739 214.895 265.328 215.535 265.191V265.122ZM239.763 239.644C239.763 248.228 237.982 259.369 234.421 273.067C232.138 282.382 230.54 287.039 229.626 287.039C228.987 287.039 228.234 286.537 227.366 285.532C226.544 284.528 226.133 283.752 226.133 283.204C226.133 282.656 226.796 279.825 228.12 274.711C229.444 269.597 230.768 263.319 232.092 255.876C233.416 248.388 234.078 241.653 234.078 235.671C234.078 235.032 234.17 234.576 234.352 234.302C234.535 234.028 234.923 233.891 235.517 233.891C236.11 233.891 236.955 234.553 238.051 235.877C239.192 237.155 239.763 238.411 239.763 239.644ZM261.277 253.068C263.332 253.068 265.226 254.118 266.962 256.219C268.697 258.273 269.564 260.145 269.564 261.835C269.564 263.478 268.993 265.168 267.852 266.903C268.4 267.588 268.674 268.181 268.674 268.684C268.674 269.962 268.377 272.154 267.783 275.259C267.236 278.364 266.893 280.396 266.756 281.354C266.665 282.313 266.573 283.089 266.482 283.683C266.391 284.231 266.277 284.779 266.14 285.327C265.957 286.468 265.546 287.039 264.907 287.039C264.085 287.039 263.4 286.331 262.852 284.916C262.35 283.455 262.053 281.583 261.962 279.3C257.898 284.459 254.131 287.039 250.661 287.039C248.561 287.039 246.483 286.149 244.428 284.368C242.419 282.542 241.415 280.669 241.415 278.752C241.415 276.012 242.419 272.633 244.428 268.615C246.437 264.551 249.04 260.944 252.236 257.794C255.432 254.643 258.446 253.068 261.277 253.068ZM264.427 265.122C264.427 260.876 263.583 258.753 261.893 258.753C260.113 258.753 258.035 260.031 255.661 262.588C253.286 265.099 251.277 267.953 249.634 271.149C247.99 274.346 247.168 276.88 247.168 278.752C247.168 279.528 247.488 280.167 248.127 280.669C248.766 281.126 249.519 281.354 250.387 281.354C252.533 281.354 254.953 279.916 257.647 277.04C260.341 274.117 262.213 270.579 263.263 266.424C263.4 265.739 263.788 265.328 264.427 265.191V265.122Z" fill="#FF9D00"/>
</svg>
